<?xml version="1.0" encoding="utf-8"?>
<!-- Generator: Adobe Illustrator 23.0.6, SVG Export Plug-In . SVG Version: 6.00 Build 0)  -->
<svg version="1.1" id="Layer_1" xmlns="http://www.w3.org/2000/svg" xmlns:xlink="http://www.w3.org/1999/xlink" x="0px" y="0px"
	 viewBox="0 0 79.1 79.1" style="enable-background:new 0 0 79.1 79.1;" xml:space="preserve">
<style type="text/css">
	.st0{opacity:0;fill-rule:evenodd;clip-rule:evenodd;fill:#808080;}
	.st1{fill-rule:evenodd;clip-rule:evenodd;fill:#FFFFFF;}
</style>
<title>Asset 13</title>
<g>
	<g id="Layer_1-2">
		<path id="Instagram" class="st0" d="M39.5,79.1c21.8,0,39.5-17.7,39.5-39.5S61.4,0,39.5,0S0,17.7,0,39.5
			C0,61.4,17.7,79.1,39.5,79.1L39.5,79.1z"/>
		<path class="st1" d="M28.7,31.9h-12v-1.5l0,0v23.8c0,6.6,6.6,6.6,6.6,6.6h31c0,0,6.6,0,6.6-6.6V31.9l0,0v-1.5H47.9
			c-3.8-5-10.9-6.1-16-2.3c-0.9,0.7-1.6,1.4-2.3,2.3H16.7v-7.1c-0.2-2.9,1.7-5.6,4.6-6.3v8.8h1.5v-9.1l0,0c0.3,0,0.5,0,0.5,0h30.9
			c0,0,6.6,0,6.6,6.6V32h-12c2.9,5.6,0.8,12.5-4.8,15.4c-5.6,2.9-12.5,0.8-15.4-4.8C26.9,39.3,26.9,35.3,28.7,31.9L28.7,31.9z
			 M52.8,19.8c-1.5,0-2.6,1.2-2.6,2.6v2.3c0,1.5,1.2,2.6,2.6,2.6h2.3c1.5,0,2.6-1.2,2.6-2.6v-2.3c0-1.5-1.2-2.6-2.6-2.6H52.8z
			 M27.4,16.8v9.1h1.5v-9.2L27.4,16.8z M24.4,16.8v9.1h1.5v-9.2L24.4,16.8z M38.8,46.4c5,0,9.1-4.1,9.1-9.1s-4.1-9.1-9.1-9.1
			s-9.1,4.1-9.1,9.1c0,0,0,0,0,0C29.7,42.3,33.7,46.4,38.8,46.4z M38.8,43.4c3.4,0,6.1-2.7,6.1-6.1s-2.7-6.1-6.1-6.1
			c-3.4,0-6.1,2.7-6.1,6.1C32.7,40.6,35.4,43.3,38.8,43.4L38.8,43.4z"/>
	</g>
</g>
</svg>
